# xmcd
#
# Track frame offsets:
#	150
#	13873
#	27164
#	42706
#	54680
#	72803
#	83373
#	99213
#	114493
#	129794
#	150331
#	169498
#	183568
#	196839
#	214937
#	232074
#	252828
#	270267
#	284408
#	311985
#
# Disc length: 4304 seconds
#
# Revision: 0
# Processed by: cddbd v1.5.2PL0 Copyright (c) Steve Scherf et al.
# Submitted via: EasyCDDAExtractor 16.0.8.2
#
DISCID=1410ce14
DTITLE=Συλλογικός δίσκος - Άρωμα Σμύρνης 1
DYEAR=2004
DGENRE=Παραδοσιακή
TTITLE0=Γλυκερία - Καροτσέρη τράβα [παραδοσιακό]
TTITLE1=Τσέρτος Μπάμπης - Μόρτισσα Σμυρνιά [Κώστας Καρίπης]
TTITLE2=Βουτυράς Κώστας - Μιά Σμυρνιά στο παραθύρι [παραδοσιακό]
TTITLE3=Άνευ ερμηνευτού - Κόνιαλης [παραδοσιακό]
TTITLE4=Μπαγιώκης Γιώργος - Στό 'πα και στο ξαναλέω [παραδοσιακό]
TTITLE5=Κατσάρης Γιώργος - Εγγλεζίτσα [παραδοσιακό]
TTITLE6=Άνευ ερμηνευτού - Γκιουζέλ Ογλάν [παραδοσιακό]
TTITLE7=Παπάζογλου Σοφία - Από τα γλυκά σου μάτια [παραδοσιακό]
TTITLE8=Ιακωβίδης Αγάθωνας - Το σαλβάρι [παραδοσιακό]
TTITLE9=Βουτυράς Κώστας - Μικρή μου Κορδελιώτισσα [παραδοσιακό]
TTITLE10=Άνευ ερμηνευτού - Σηλυβριανό [παραδοσιακό]
TTITLE11=Σαραγούδα Γιασεμή - Χαρικλάκι [Παναγιώτης Τούντας]
TTITLE12=Ιακωβίδης Αγάθωνας - Από τα πολλά [παραδοσιακό]
TTITLE13=Ζυγομαλάς Χρήστος - Κάηκε ένα σχολείο [παραδοσιακό]
TTITLE14=Άνευ ερμηνευτού - Μπαμ [παραδοσιακό]
TTITLE15=Τζώρτζης Γιώργος - Σε καινούργια βάρκα μπήκα [παραδοσιακό]
TTITLE16=Πομώνη Χαρά - Η αγάπη είναι καρφίτσα [παραδοσιακό]
TTITLE17=Βουτυράς Κώστας - Μπάλος μαστίχα [παραδοσιακό]
TTITLE18=Καρούλης Ζαχαρίας - Μανές της αυγής [παραδοσιακό]
TTITLE19=Άνευ ερμηνευτού - Εμβατήριο της Σμύρνης [Ορχηστρικό 1919]
EXTD=
EXTT0=
EXTT1=
EXTT2=
EXTT3=
EXTT4=
EXTT5=
EXTT6=
EXTT7=
EXTT8=
EXTT9=
EXTT10=
EXTT11=
EXTT12=
EXTT13=
EXTT14=
EXTT15=
EXTT16=
EXTT17=
EXTT18=
EXTT19=
PLAYORDER=
